<svg width="88" height="86" viewBox="0 0 88 86" fill="none" xmlns="http://www.w3.org/2000/svg">
<g id="Configura&#195;&#167;&#195;&#181;es">
<path id="Vector" d="M63.4333 37.4566L70.499 38.5853C70.7788 38.6304 71.0331 38.7712 71.2164 38.9825C71.3998 39.1939 71.5003 39.4621 71.5 39.7392V46.1641C71.4999 46.439 71.4005 46.7051 71.2194 46.9155C71.0384 47.1259 70.7871 47.2671 70.51 47.3143L63.4333 48.5291C63.0251 49.9194 62.4641 51.2464 61.7503 52.5102L65.934 58.1862C66.1008 58.4115 66.1799 58.6875 66.157 58.9647C66.1342 59.2419 66.0109 59.502 65.8093 59.6983L61.16 64.242C60.9614 64.4369 60.6988 64.5571 60.4184 64.5813C60.138 64.6056 59.8579 64.5324 59.6273 64.3746L53.7607 60.3505C52.4616 61.0554 51.0868 61.6178 49.6613 62.0275L48.4147 68.9111C48.3655 69.1819 48.2201 69.427 48.0041 69.6033C47.7881 69.7797 47.5154 69.8759 47.234 69.875H40.6633C40.3808 69.8753 40.1073 69.7774 39.8917 69.5989C39.6761 69.4204 39.5324 69.1728 39.4863 68.9003L38.3167 62.0526C36.8853 61.6475 35.5043 61.0887 34.199 60.3863L28.3763 64.3746C28.1458 64.5324 27.8656 64.6056 27.5853 64.5813C27.3049 64.5571 27.0423 64.4369 26.8437 64.242L22.1907 59.6983C21.9931 59.5015 21.8721 59.2433 21.8486 58.9685C21.8252 58.6936 21.9008 58.4194 22.0623 58.1933L26.18 52.5675C25.4535 51.2858 24.8754 49.9289 24.4567 48.5219L17.4863 47.3143C17.2099 47.2664 16.9595 47.1248 16.7792 46.9145C16.5988 46.7041 16.5 46.4385 16.5 46.1641V39.7392C16.5 39.1658 16.9217 38.6785 17.501 38.5853L24.4713 37.4494C24.8942 36.04 25.4687 34.6926 26.1947 33.4074L22.1247 27.7242C21.9642 27.4992 21.8898 27.2262 21.9146 26.953C21.9394 26.6798 22.0618 26.4239 22.2603 26.23L26.9133 21.6899C27.1133 21.4943 27.3778 21.3743 27.6598 21.3513C27.9418 21.3283 28.223 21.4039 28.4533 21.5645L34.2283 25.5958C35.5312 24.8982 36.9013 24.3488 38.3387 23.9474L39.4827 17.1032C39.5288 16.8298 39.6728 16.5813 39.8891 16.4021C40.1054 16.2229 40.3798 16.1247 40.6633 16.125H47.2377C47.8207 16.125 48.3157 16.5335 48.4183 17.0925L49.6503 23.9725C51.0803 24.3762 52.4492 24.9316 53.757 25.6388L59.543 21.5717C59.7731 21.4082 60.0554 21.3303 60.339 21.352C60.6226 21.3737 60.889 21.4935 61.0903 21.6899L65.7397 26.2336C65.9386 26.4281 66.0608 26.685 66.085 26.959C66.1091 27.233 66.0336 27.5065 65.8717 27.7314L61.7467 33.4755C62.4556 34.7416 63.0178 36.0674 63.4333 37.453V37.4566ZM35.6253 43C35.6253 45.1697 36.5073 47.2505 38.0771 48.7847C39.647 50.3188 41.7762 51.1807 43.9963 51.1807C46.2165 51.1807 48.3457 50.3188 49.9155 48.7847C51.4854 47.2505 52.3673 45.1697 52.3673 43C52.3673 40.8303 51.4854 38.7495 49.9155 37.2153C48.3457 35.6811 46.2165 34.8192 43.9963 34.8192C41.7762 34.8192 39.647 35.6811 38.0771 37.2153C36.5073 38.7495 35.6253 40.8303 35.6253 43Z" stroke="#E28922" stroke-width="2.5"/>
</g>
</svg>
