<svg width="77" height="60" viewBox="0 0 77 60" fill="none" xmlns="http://www.w3.org/2000/svg">
<g id="Historico">
<path id="Vector" d="M38.3779 50C31.8629 50 26.183 48.3417 21.3384 45.025C16.496 41.71 13.6941 37.535 12.9326 32.5H16.1762C17.0489 36.8 19.5632 40.375 23.719 43.225C27.8749 46.075 32.7612 47.5 38.3779 47.5C44.6342 47.5 49.9407 45.8025 54.2977 42.4075C58.6546 39.0125 60.8341 34.8767 60.8362 30C60.8384 25.1233 58.6589 20.9875 54.2977 17.5925C49.9365 14.1975 44.6299 12.5 38.3779 12.5C35.0562 12.5 31.9356 13.0467 29.016 14.14C26.0964 15.2317 23.519 16.7358 21.2839 18.6525H29.2438V21.1525H15.9196V10.7725H19.1279V16.7425C21.609 14.6208 24.5158 12.9675 27.8482 11.7825C31.1805 10.5975 34.6905 10.0033 38.3779 10C41.9349 10 45.2694 10.5217 48.3815 11.565C51.4936 12.6083 54.2121 14.0367 56.5371 15.85C58.862 17.6633 60.6951 19.7817 62.0362 22.205C63.3772 24.6283 64.0467 27.2267 64.0446 30C64.0424 32.7733 63.373 35.3717 62.0362 37.795C60.6994 40.2183 58.8663 42.3367 56.5371 44.15C54.2078 45.9633 51.4893 47.3917 48.3815 48.435C45.2737 49.4783 41.9392 50 38.3779 50ZM48.6574 39.635L36.9566 30.52V17.5H40.1649V29.48L50.9257 37.865L48.6574 39.635Z" fill="black"/>
</g>
</svg>
