<svg width="50" height="54" viewBox="0 0 50 54" fill="none" xmlns="http://www.w3.org/2000/svg">
<path id="Vector" d="M11.4449 35.705C7.9074 37.81 -1.3676 42.11 4.2824 47.4925C7.0399 50.12 10.1124 52 13.9749 52H36.0199C39.8849 52 42.9574 50.12 45.7149 47.4925C51.3649 42.11 42.0899 37.81 38.5524 35.705C34.4469 33.2796 29.7658 32.0003 24.9974 32.0003C20.229 32.0003 15.5504 33.2796 11.4449 35.705ZM36.2499 13.25C36.2499 16.2337 35.0646 19.0952 32.9549 21.205C30.8451 23.3147 27.9836 24.5 24.9999 24.5C22.0162 24.5 19.1547 23.3147 17.045 21.205C14.9352 19.0952 13.7499 16.2337 13.7499 13.25C13.7499 10.2663 14.9352 7.40483 17.045 5.29505C19.1547 3.18526 22.0162 2 24.9999 2C27.9836 2 30.8451 3.18526 32.9549 5.29505C35.0646 7.40483 36.2499 10.2663 36.2499 13.25Z" stroke="black" stroke-width="3.75" stroke-linecap="round" stroke-linejoin="round"/>
</svg>
